<?xml version="1.0" encoding="UTF-8"?>
<svg id="Calque_2" data-name="Calque 2" xmlns="http://www.w3.org/2000/svg" viewBox="0 0 130.18 24">
  <defs>
    <style>
      .cls-1 {
        fill: #3c3c3b;
      }

      .cls-2 {
        isolation: isolate;
      }
    </style>
  </defs>
  <g id="Calque_1-2" data-name="Calque 1">
    <g class="cls-2">
      <g class="cls-2">
        <path class="cls-1" d="M26.45,18.1c.62,2.93,2.54,2.54,2.54,4.22,0,.96-.82,1.2-2.11,1.2h-6.72c-1.34,0-2.16-.29-2.16-1.25,0-1.58,2.5-1.44,1.87-4.56l-1.49-7.58c-.58-3.02-1.49-6-4.66-5.95-2.54,0-4.85,2.3-4.85,6.53v6.14c0,4.46,2.3,3.36,2.3,5.47,0,.96-.77,1.2-2.11,1.2H2.21c-1.34,0-2.21-.29-2.21-1.25,0-2.06,2.4-.96,2.4-5.42V7.73c0-1.34-.53-2.21-1.49-2.93-.48-.34-.91-.67-.91-1.34,0-.77.38-1.1,1.54-1.63C3.31.96,6.29.1,7.06.05c.82,0,1.15.48,1.15,1.44v2.88C10.03,1.49,12.96,0,16.03,0c5.47,0,7.54,3.55,8.78,9.89l1.63,8.21Z"/>
      </g>
      <g class="cls-2">
        <path class="cls-1" d="M30.19,12.91c0-7.2,5.62-12.91,13.25-12.91,6.62,0,11.18,4.9,11.18,11.28,0,7.25-5.52,12.72-13.15,12.72-6.38,0-11.28-4.27-11.28-11.09ZM48.24,14.64c0-5.57-2.83-11.47-6.96-11.47-3.46,0-4.75,3.26-4.75,6.67,0,5.62,2.88,10.99,7.01,10.99,3.26,0,4.7-2.88,4.7-6.19Z"/>
      </g>
      <g class="cls-2">
        <path class="cls-1" d="M99.8,18.1c.58,2.93,2.5,2.54,2.5,4.22,0,.96-.77,1.2-2.06,1.2h-6.72c-1.34,0-2.21-.29-2.21-1.25,0-1.58,2.54-1.44,1.92-4.56l-1.49-7.58c-.58-3.02-1.1-6-4.42-5.95-2.4,0-4.8,2.16-4.8,6.53v6.14c0,4.46,2.35,3.36,2.35,5.47,0,.96-.82,1.2-2.11,1.2h-6.86c-1.39,0-2.21-.29-2.21-1.25,0-2.06,2.35-.96,2.35-5.42v-6.29c0-3.55-.62-6.58-4.08-6.53-2.59.05-5.14,2.45-5.14,6.67v6.14c0,4.46,2.3,3.36,2.3,5.47,0,.96-.77,1.2-2.11,1.2h-6.86c-1.34,0-2.21-.29-2.21-1.25,0-2.06,2.4-.96,2.4-5.42V7.73c0-1.34-.53-2.21-1.49-2.93-.48-.34-.91-.67-.91-1.34,0-.77.38-1.1,1.54-1.63,1.78-.86,4.75-1.73,5.52-1.78.82,0,1.15.48,1.15,1.44v3.12c1.87-3.07,4.85-4.61,7.97-4.61,3.89,0,6.34,1.68,7.54,4.61,1.82-3.02,4.7-4.61,7.92-4.61,5.57,0,7.3,3.55,8.59,9.89l1.63,8.21Z"/>
      </g>
      <g class="cls-2">
        <path class="cls-1" d="M127.4,8.02v8.35c0,3.5,2.78,2.74,2.78,4.13,0,.67-.48,1.2-1.54,1.78-1.44.77-4.13,1.68-5.47,1.68s-1.92-.77-2.02-2.78l-.05-1.3c-1.97,2.64-5.04,4.08-7.63,4.08-5.18,0-8.11-3.5-8.11-9.65v-6.29c0-3.31-2.3-2.98-2.3-4.42,0-.62.34-.96,1.49-1.49,2.02-.96,5.47-2.11,6.24-2.11s1.1.43,1.1,1.44l-.05,6.58v5.95c0,3.65,1.01,5.95,3.89,5.9,2.54-.05,5.18-2.74,5.18-6.82v-5.04c0-3.31-2.3-2.98-2.3-4.42,0-.62.34-.96,1.49-1.49,2.02-.96,5.47-2.11,6.24-2.11s1.1.43,1.1,1.44l-.05,6.58Z"/>
      </g>
    </g>
    <circle class="cls-1" cx="42.32" cy="12.15" r="4.72"/>
  </g>
</svg>